<svg id="svg" version="1.1" xmlns="http://www.w3.org/2000/svg" xmlns:xlink="http://www.w3.org/1999/xlink" width="400" height="400" viewBox="0, 0, 400,400"><g id="svgg"><path id="path0" d="M0.000 200.000 L 0.000 400.000 200.000 400.000 L 400.000 400.000 400.000 200.000 L 400.000 0.000 200.000 0.000 L 0.000 0.000 0.000 200.000 M388.889 200.000 L 388.889 390.000 200.000 390.000 L 11.111 390.000 11.111 200.000 L 11.111 10.000 200.000 10.000 L 388.889 10.000 388.889 200.000 M301.481 121.499 C 257.013 126.983,234.278 155.913,234.263 207.037 C 234.248 258.684,254.477 287.993,293.041 292.200 C 317.275 294.844,335.715 286.382,343.355 269.111 C 343.909 267.858,344.294 267.413,344.690 267.564 C 344.996 267.682,345.565 267.778,345.956 267.778 C 346.641 267.778,346.667 268.185,346.667 279.074 L 346.667 290.370 362.407 290.370 L 378.148 290.370 378.148 244.259 L 378.148 198.148 342.037 198.148 L 305.926 198.148 305.926 211.478 L 305.926 224.808 325.648 224.904 L 345.370 225.000 345.265 231.481 C 344.889 254.558,334.428 264.439,310.370 264.442 C 281.211 264.447,268.079 246.776,267.988 207.407 C 267.900 169.659,280.225 151.831,307.940 149.618 C 326.826 148.110,340.913 154.391,348.345 167.633 L 350.125 170.804 351.822 170.680 C 353.619 170.548,376.657 157.000,376.664 156.070 C 376.665 155.844,375.768 153.891,374.670 151.729 C 366.312 135.280,350.823 125.575,327.222 122.000 C 322.790 121.328,305.582 120.994,301.481 121.499 M27.037 206.852 L 27.037 290.370 42.037 290.370 L 57.037 290.370 57.037 235.192 L 57.037 180.014 57.934 179.789 C 58.427 179.665,59.121 179.620,59.477 179.689 C 59.978 179.787,64.451 192.238,79.381 235.097 L 98.639 290.379 112.354 290.282 L 126.069 290.185 145.331 234.907 C 164.554 179.745,164.596 179.630,165.600 179.630 C 167.977 179.630,167.778 174.547,167.778 235.225 L 167.778 290.370 183.333 290.370 L 198.889 290.370 198.889 206.852 L 198.889 123.333 177.835 123.333 L 156.781 123.333 136.543 182.500 C 125.412 215.042,115.952 242.717,115.519 244.001 C 114.739 246.318,114.723 246.335,113.436 246.224 L 112.138 246.111 93.484 191.852 C 83.225 162.009,73.722 134.384,72.367 130.463 L 69.904 123.333 48.471 123.333 L 27.037 123.333 27.037 206.852 " stroke="none" fill="#0b0b0b" fill-rule="evenodd"></path><path id="path1" d="M11.481 200.000 L 11.481 390.000 200.000 390.000 L 388.519 390.000 388.519 200.000 L 388.519 10.000 200.000 10.000 L 11.481 10.000 11.481 200.000 M325.976 121.689 C 350.151 124.674,367.503 135.673,375.565 153.122 C 376.394 154.917,377.022 156.425,376.962 156.475 C 376.901 156.524,371.453 159.838,364.855 163.838 C 351.052 172.206,350.640 172.356,349.225 169.537 C 342.391 155.925,330.944 149.797,312.407 149.827 C 304.396 149.840,302.926 150.017,297.222 151.656 C 278.852 156.932,269.288 172.959,268.214 200.266 C 266.510 243.590,280.000 264.343,309.922 264.433 C 334.177 264.506,345.185 253.887,345.185 230.415 L 345.185 225.185 325.370 225.185 L 305.556 225.185 305.556 211.667 L 305.556 198.148 341.852 198.148 L 378.148 198.148 378.148 244.259 L 378.148 290.370 362.228 290.370 L 346.307 290.370 346.209 279.167 L 346.111 267.963 345.175 267.854 C 344.382 267.761,344.106 268.017,343.377 269.520 C 335.228 286.321,318.687 294.372,295.926 292.617 C 255.747 289.517,233.736 259.235,233.707 207.018 C 233.678 154.896,259.194 124.570,306.111 120.965 C 309.478 120.706,321.593 121.148,325.976 121.689 M89.154 178.704 C 99.589 209.056,109.067 236.597,110.217 239.907 L 112.307 245.926 113.478 245.926 L 114.648 245.926 135.588 184.722 L 156.527 123.519 177.708 123.423 L 198.889 123.327 198.889 206.849 L 198.889 290.370 183.148 290.370 L 167.407 290.370 167.407 235.227 L 167.407 180.084 166.204 179.897 C 165.542 179.793,164.900 179.816,164.777 179.947 C 164.612 180.123,130.800 276.934,126.824 288.616 L 126.224 290.379 112.301 290.282 L 98.378 290.185 79.204 235.185 C 68.658 204.935,59.982 180.064,59.922 179.915 C 59.863 179.766,59.190 179.746,58.426 179.871 L 57.037 180.097 57.037 235.234 L 57.037 290.370 41.852 290.370 L 26.667 290.370 26.667 206.849 L 26.667 123.327 48.425 123.423 L 70.183 123.519 89.154 178.704 " stroke="none" fill="#939393" fill-rule="evenodd"></path><path id="path2" d="M315.648 225.092 C 321.097 225.150,330.014 225.150,335.463 225.092 C 340.912 225.035,336.454 224.987,325.556 224.987 C 314.657 224.987,310.199 225.035,315.648 225.092 " stroke="none" fill="#4c4c4c" fill-rule="evenodd"></path><path id="path3" d="M11.295 200.000 C 11.295 304.602,11.337 347.394,11.389 295.093 C 11.441 242.792,11.441 157.208,11.389 104.907 C 11.337 52.606,11.295 95.398,11.295 200.000 M388.702 200.000 C 388.702 304.602,388.745 347.394,388.796 295.093 C 388.848 242.792,388.848 157.208,388.796 104.907 C 388.745 52.606,388.702 95.398,388.702 200.000 M26.849 206.852 C 26.849 252.889,26.892 271.667,26.944 248.581 C 26.997 225.496,26.997 187.829,26.944 164.878 C 26.892 141.926,26.849 160.815,26.849 206.852 M313.245 149.521 C 313.706 149.610,314.372 149.606,314.727 149.514 C 315.081 149.421,314.704 149.349,313.889 149.353 C 313.074 149.357,312.784 149.433,313.245 149.521 M349.968 170.857 C 350.136 171.025,350.920 171.105,351.710 171.036 L 353.148 170.910 351.406 170.732 C 350.448 170.633,349.801 170.690,349.968 170.857 M167.588 235.185 C 167.588 265.639,167.632 278.097,167.685 262.870 C 167.739 247.644,167.739 222.727,167.685 207.500 C 167.632 192.273,167.588 204.731,167.588 235.185 M233.848 206.481 C 233.848 209.130,233.907 210.164,233.979 208.781 C 234.050 207.397,234.050 205.231,233.978 203.966 C 233.905 202.701,233.847 203.833,233.848 206.481 M267.864 213.333 C 267.864 214.046,267.940 214.338,268.033 213.981 C 268.126 213.625,268.126 213.042,268.033 212.685 C 267.940 212.329,267.864 212.620,267.864 213.333 M345.322 228.889 C 345.322 231.028,345.383 231.903,345.458 230.833 C 345.533 229.764,345.533 228.014,345.458 226.944 C 345.383 225.875,345.322 226.750,345.322 228.889 " stroke="none" fill="#444444" fill-rule="evenodd"></path><path id="path4" d="M308.616 121.007 C 309.179 121.092,310.013 121.089,310.468 121.001 C 310.924 120.914,310.463 120.844,309.444 120.847 C 308.426 120.849,308.053 120.921,308.616 121.007 M313.611 121.002 C 314.069 121.090,314.819 121.090,315.278 121.002 C 315.736 120.914,315.361 120.842,314.444 120.842 C 313.528 120.842,313.153 120.914,313.611 121.002 M365.741 139.259 C 366.744 140.278,367.648 141.111,367.750 141.111 C 367.852 141.111,367.114 140.278,366.111 139.259 C 365.108 138.241,364.204 137.407,364.102 137.407 C 364.000 137.407,364.738 138.241,365.741 139.259 M341.481 159.005 C 341.481 159.069,342.023 159.610,342.685 160.208 L 343.889 161.296 342.801 160.093 C 341.787 158.971,341.481 158.719,341.481 159.005 M281.273 160.833 L 280.185 162.037 281.389 160.949 C 282.051 160.351,282.593 159.809,282.593 159.746 C 282.593 159.459,282.287 159.711,281.273 160.833 M305.723 211.667 C 305.723 219.204,305.773 222.234,305.833 218.402 C 305.893 214.569,305.893 208.402,305.833 204.698 C 305.772 200.994,305.723 204.130,305.723 211.667 M267.899 203.889 C 267.901 205.315,267.968 205.853,268.048 205.084 C 268.128 204.316,268.127 203.149,268.045 202.492 C 267.963 201.834,267.898 202.463,267.899 203.889 M267.893 209.074 C 267.895 210.296,267.964 210.752,268.046 210.086 C 268.129 209.420,268.127 208.420,268.042 207.864 C 267.958 207.307,267.890 207.852,267.893 209.074 M233.790 213.704 C 233.790 214.417,233.866 214.708,233.959 214.352 C 234.052 213.995,234.052 213.412,233.959 213.056 C 233.866 212.699,233.790 212.991,233.790 213.704 M112.685 246.181 C 113.042 246.274,113.625 246.274,113.981 246.181 C 114.338 246.088,114.046 246.012,113.333 246.012 C 112.620 246.012,112.329 246.088,112.685 246.181 M280.370 253.079 C 280.370 253.143,280.912 253.684,281.574 254.283 L 282.778 255.370 281.690 254.167 C 280.676 253.045,280.370 252.793,280.370 253.079 M346.296 279.185 L 346.481 290.556 346.579 279.469 C 346.634 273.371,346.550 268.254,346.395 268.098 C 346.239 267.942,346.194 272.931,346.296 279.185 M299.171 292.855 C 299.632 292.943,300.298 292.940,300.652 292.847 C 301.007 292.754,300.630 292.682,299.815 292.686 C 299.000 292.690,298.710 292.766,299.171 292.855 M303.431 292.858 C 303.994 292.943,304.827 292.941,305.283 292.853 C 305.738 292.765,305.278 292.696,304.259 292.699 C 303.241 292.701,302.868 292.773,303.431 292.858 " stroke="none" fill="#545454" fill-rule="evenodd"></path></g></svg>